<?xml version="1.0" encoding="UTF-8"?>
<svg version="1.1" xmlns="http://www.w3.org/2000/svg" width="980" height="981">
<path d="M0 0 C0.8765625 0.66515625 1.753125 1.3303125 2.65625 2.015625 C9.44567281 7.30106174 15.74549894 13.10116405 22 19 C22.73347656 19.6909375 23.46695312 20.381875 24.22265625 21.09375 C62.16433381 57.903966 81.39138269 111.38085359 82.1875 163.5 C82.06278448 219.82984216 59.24573503 271.53784762 19.875 311.375 C-17.96615833 348.82826491 -69.6979522 368.23554 -122.5 369.1875 C-179.60646782 368.60741173 -231.7039672 345.95568912 -271.80810547 305.42602539 C-309.00754618 267.03325361 -328.94633353 213.67564636 -328.15234375 160.453125 C-326.96723506 117.24073209 -313.26982299 75.47642885 -287 41 C-286.33355469 40.12085938 -285.66710937 39.24171875 -284.98046875 38.3359375 C-279.69226603 31.55066721 -273.89245688 25.2580155 -268 19 C-267.34386719 18.28972656 -266.68773437 17.57945312 -266.01171875 16.84765625 C-259.94899737 10.49932487 -252.98428451 5.27942965 -246 0 C-245.44570313 -0.42571289 -244.89140625 -0.85142578 -244.3203125 -1.29003906 C-174.02839455 -55.05999304 -69.80360653 -53.61204832 0 0 Z M-183 42 C-184.03253906 42.50015625 -185.06507813 43.0003125 -186.12890625 43.515625 C-213.91898989 57.564109 -235.62702593 81.59424155 -248 110 C-248.28069336 110.64259766 -248.56138672 111.28519531 -248.85058594 111.94726562 C-261.97893958 142.71926061 -263.12439523 179.69420625 -251 211 C-243.55201277 228.92739124 -234.44231322 243.96831048 -221 258 C-220.20464844 258.87011719 -219.40929687 259.74023438 -218.58984375 260.63671875 C-195.25082976 285.31341378 -161.61462213 298.7145689 -127.98828125 300.28515625 C-92.29602424 301.26283498 -57.55110819 288.82954684 -31.41796875 264.31640625 C-30.62003906 263.55199219 -29.82210937 262.78757812 -29 262 C-28.12988281 261.20464844 -27.25976562 260.40929687 -26.36328125 259.58984375 C-1.97487386 236.52348983 11.87562136 202.62675147 13.22265625 169.31640625 C13.80267623 146.44285577 9.40563574 124.42492362 -1 104 C-1.50015625 102.96746094 -2.0003125 101.93492187 -2.515625 100.87109375 C-16.564109 73.08101011 -40.59424155 51.37297407 -69 39 C-69.64259766 38.71930664 -70.28519531 38.43861328 -70.94726562 38.14941406 C-106.62206263 22.92936248 -148.49830213 24.42284245 -183 42 Z " fill="#040404" transform="translate(613,326)"/>
<path d="M0 0 C7.95837819 6.29463511 15.00041553 13.84036443 22.17919922 21.00219727 C23.3661098 22.18282611 24.55320316 23.36327122 25.74046326 24.54354858 C29.59871249 28.38098662 33.45183514 32.22355098 37.3046875 36.06640625 C38.63877404 37.39643889 39.97289213 38.72643988 41.30704117 40.05640984 C47.56837056 46.29875091 53.82732954 52.54345666 60.08335578 58.79111248 C67.28436343 65.98232236 74.49360198 73.16514858 81.70982921 80.34108502 C87.30604592 85.90713129 92.89455437 91.48084196 98.4773618 97.06033748 C101.804714 100.38534366 105.13526372 103.70698789 108.47402573 107.02054024 C111.61014705 110.13335461 114.73657676 113.25558805 117.85592842 116.38520432 C118.99889555 117.52866598 120.14526483 118.66873909 121.29533577 119.80505562 C130.3767327 128.78391371 136.8818524 136.98114834 137.3125 150.3125 C137.04138643 161.95443579 132.5465652 169.74832181 124.375 177.75 C117.38869512 183.56526711 108.63379943 185.71666947 99.66015625 185.31640625 C85.07870839 183.58204902 76.53680762 173.84380716 66.60473633 163.94287109 C65.37067415 162.7197206 64.13623273 161.49695263 62.90144348 160.27453613 C59.56597602 156.969414 56.23712956 153.65770529 52.91044068 150.34374952 C50.82798442 148.26940644 48.74449895 146.19610219 46.66074181 144.12306595 C40.12959637 137.62458845 33.60283625 131.12174942 27.0818947 124.6130327 C19.57578378 117.12118087 12.05508251 109.64438959 4.52151281 102.1801523 C-1.31696765 96.39354602 -7.14184654 90.59347161 -12.95676786 84.78319228 C-16.42315431 81.32019349 -19.89495728 77.8630883 -23.38118553 74.42005539 C-26.66110512 71.18007395 -29.9237203 67.92359466 -33.17422676 64.65411377 C-34.36414401 63.46293737 -35.55997807 62.27763505 -36.76233673 61.0990181 C-44.65368188 53.35458432 -51.43542466 45.42329032 -52.62890625 33.93359375 C-52.3953068 21.63526981 -50.17200157 13.17179998 -41.51171875 4.16796875 C-29.99938515 -5.76880442 -13.33636523 -7.16608961 0 0 Z " fill="#040404" transform="translate(710,662)"/>
<path d="M0 0 C2.33971691 1.79815769 2.33971691 1.79815769 4.61088562 3.91200256 C5.90906251 5.1187926 5.90906251 5.1187926 7.23346519 6.34996223 C12.26501844 11.16963994 17.22742598 16.0533261 22.16333008 20.97045898 C23.34862763 22.14783348 24.53409819 23.32503383 25.71972656 24.5020752 C29.5733237 28.32974116 33.42173331 32.1625994 37.26953125 35.99609375 C38.60238399 37.32357784 39.93524115 38.6510575 41.26810265 39.97853279 C46.81144031 45.50029834 52.35336002 51.02348053 57.89157581 56.55038357 C65.79516389 64.43771062 73.70714676 72.31639792 81.63098031 80.18338722 C87.22386571 85.73752388 92.80708803 91.30125815 98.3832733 96.87216049 C101.70547406 100.19071926 105.03167362 103.50501615 108.36829567 106.80908012 C111.50418191 109.9147931 114.62786388 113.03228912 117.74282074 116.15898895 C118.88287971 117.29926776 120.02717394 118.43533148 121.17613029 119.56664467 C130.4398228 128.69584302 137.02912802 137.17228788 137.3125 150.625 C137.21944609 160.59210822 133.98517813 168.80630909 127 176 C117.29533709 184.13266793 108.54847183 186.05946528 96 185 C81.96473859 182.27701309 72.55197331 169.70789715 62.83666992 160.02954102 C61.65137237 158.85216652 60.46590181 157.67496617 59.28027344 156.4979248 C55.4266763 152.67025884 51.57826669 148.8374006 47.73046875 145.00390625 C46.39761601 143.67642216 45.06475885 142.3489425 43.73189735 141.02146721 C38.18855969 135.49970166 32.64663998 129.97651947 27.10842419 124.44961643 C19.20483611 116.56228938 11.29285324 108.68360208 3.36901969 100.81661278 C-2.22386571 95.26247612 -7.80708803 89.69874185 -13.3832733 84.12783951 C-16.70547406 80.80928074 -20.03167362 77.49498385 -23.36829567 74.19091988 C-26.50418191 71.0852069 -29.62786388 67.96771088 -32.74282074 64.84101105 C-33.88287971 63.70073224 -35.02717394 62.56466852 -36.17613029 61.43335533 C-45.24820411 52.49299366 -52.01476728 44.08354579 -52.25 30.8125 C-52.10607945 20.10481093 -48.52848661 12.59590718 -41.078125 5.0546875 C-29.47859519 -5.69061337 -14.09937155 -6.76609031 0 0 Z " fill="#040404" transform="translate(185,137)"/>
<path d="M0 0 C8.49867013 6.80917546 12.99317961 14.54754461 14.28515625 25.41796875 C14.71287951 37.53109159 10.47681185 45.59102723 2.41801071 54.28513145 C-0.7211053 57.54515075 -3.91679728 60.748791 -7.11181641 63.95385742 C-8.3349669 65.1879196 -9.55773487 66.42236102 -10.78015137 67.65715027 C-14.0852735 70.99261773 -17.39698221 74.32146419 -20.71093798 77.64815307 C-22.78528106 79.73060933 -24.85858531 81.8140948 -26.93162155 83.89785194 C-33.43009905 90.42899738 -39.93293808 96.9557575 -46.4416548 103.47669905 C-53.93350663 110.98280997 -61.41029791 118.50351124 -68.8745352 126.03708094 C-74.66114148 131.8755614 -80.46121589 137.70044029 -86.27149522 143.51536161 C-89.73449401 146.98174806 -93.1915992 150.45355103 -96.63463211 153.93977928 C-99.87461355 157.21969887 -103.13109284 160.48231405 -106.40057373 163.73282051 C-107.59175013 164.92273776 -108.77705245 166.11857182 -109.9556694 167.32093048 C-117.70010318 175.21227563 -125.63139718 181.99401841 -137.12109375 183.1875 C-149.41941769 182.95390055 -157.88288752 180.73059532 -166.88671875 172.0703125 C-174.74299335 162.96835833 -175.89804117 153.2043157 -175.0546875 141.55859375 C-172.36271749 127.53488511 -159.75692532 118.10297285 -150.10009766 108.39526367 C-148.92435496 107.20995668 -147.74877685 106.0244864 -146.573349 104.83886719 C-142.75064812 100.98511644 -138.92268989 97.13661322 -135.09375 93.2890625 C-134.11229232 92.30265884 -134.11229232 92.30265884 -133.11100721 91.29632783 C-126.92901232 85.08359897 -120.74498322 78.8729015 -114.5561161 72.66701794 C-106.67610941 64.76507619 -98.80635956 56.85321621 -90.95014918 48.92761344 C-85.40283588 43.33298651 -79.84400689 37.74996655 -74.2766155 32.17532045 C-70.96061905 28.85438519 -67.64980406 25.52865288 -64.35133743 22.19029808 C-61.25025105 19.05219488 -58.13506199 15.92879625 -55.00880623 12.81577301 C-53.86967619 11.6765893 -52.73559632 10.53232758 -51.60724831 9.38246346 C-37.21859515 -5.26560275 -18.55793142 -12.65996536 0 0 Z " fill="#040404" transform="translate(833.0546875,139.44140625)"/>
<path d="M0 0 C9.06605632 4.85249871 15.14913229 11.80112695 18.92578125 21.34765625 C21.76233886 31.09726145 20.79730768 41.17031525 16.05078125 50.09765625 C9.76804195 58.06233327 2.2088711 65.09962116 -4.95141602 72.27685547 C-6.13204486 73.46376605 -7.31248997 74.65085941 -8.49276733 75.83811951 C-12.33020537 79.69636874 -16.17276973 83.54949139 -20.015625 87.40234375 C-21.34565764 88.73643029 -22.67565863 90.07054838 -24.00562859 91.40469742 C-30.24796966 97.66602681 -36.49267541 103.92498579 -42.74033123 110.18101203 C-49.93154111 117.38201968 -57.11436733 124.59125823 -64.29030377 131.80748546 C-69.85635004 137.40370217 -75.43006071 142.99221062 -81.00955623 148.57501805 C-84.33456241 151.90237025 -87.65620664 155.23291997 -90.96975899 158.57168198 C-94.08257336 161.7078033 -97.2048068 164.83423301 -100.33442307 167.95358467 C-101.47788473 169.0965518 -102.61795784 170.24292108 -103.75427437 171.39299202 C-112.73313246 180.47438895 -120.93036709 186.97950865 -134.26171875 187.41015625 C-144.90068949 187.1623994 -152.3977335 183.58225613 -159.89453125 176.17578125 C-167.09616641 168.40163116 -169.30138377 160.5112339 -169.16015625 150.00390625 C-168.09853284 135.37709485 -157.74184586 126.58778299 -147.95214844 116.79418945 C-146.73558844 115.56999678 -145.51942799 114.34540695 -144.30363464 113.12045288 C-141.01704561 109.81202807 -137.72400823 106.51009793 -134.42903423 103.21002603 C-132.36721052 101.14454739 -130.30668819 99.0777793 -128.24658966 97.01058006 C-121.04981335 89.78935237 -113.84737263 82.57382487 -106.64013672 75.36303711 C-99.93679734 68.65606039 -93.24671409 61.93605609 -86.56251407 55.21000987 C-80.80897153 49.42172202 -75.04579379 43.64314504 -69.27520108 37.87185544 C-65.83502134 34.43088469 -62.39889233 30.98609669 -58.9726181 27.5312748 C-55.74965452 24.28205638 -52.51482111 21.04513378 -49.27071571 17.81702805 C-48.08691532 16.63503589 -46.90732029 15.44881343 -45.73245049 14.25794411 C-33.3418008 1.70899683 -18.04333208 -7.3056806 0 0 Z " fill="#040404" transform="translate(301.94921875,659.90234375)"/>
<path d="M0 0 C9.01889914 5.52771237 15.44218153 13.0636985 18.1796875 23.3359375 C18.762933 29.35479472 18.72763802 35.34446459 18.69726562 41.38671875 C18.70269318 43.20446329 18.70981939 45.02220342 18.71850586 46.8399353 C18.73666676 51.75319175 18.72970166 56.66611042 18.71698952 61.57937241 C18.70682426 66.73432031 18.71626496 71.88924034 18.72253418 77.04418945 C18.72980034 85.69910851 18.72024998 94.3538908 18.70117188 103.00878906 C18.67940516 112.99841302 18.68645726 122.98771035 18.7084775 132.97732639 C18.72666091 141.57212134 18.72917544 150.16681827 18.71872282 158.76162624 C18.71250406 163.88708788 18.71160763 169.01239626 18.72486877 174.1378479 C18.73646952 178.9577619 18.72832466 183.777257 18.70529175 188.59712601 C18.70002716 190.36028983 18.70147964 192.12348923 18.71034241 193.88663864 C18.76579367 206.0439216 17.81707243 216.98831667 9.1796875 226.3359375 C1.25233408 233.56431998 -7.14027004 236.3359375 -17.8203125 236.3359375 C-26.43840385 235.52122872 -34.5573095 232.43412463 -40.8203125 226.3359375 C-46.77268265 218.66770554 -50.29293913 211.18321815 -50.20799255 201.37991333 C-50.21337809 200.62059285 -50.21876363 199.86127237 -50.22431237 199.07894218 C-50.23852105 196.55652807 -50.231506 194.03464404 -50.22436523 191.51220703 C-50.23007256 189.69475892 -50.23703822 187.8773144 -50.24516296 186.05987549 C-50.26307038 181.13829523 -50.26193041 176.2168935 -50.25622058 171.29529047 C-50.25312494 167.18011507 -50.25922543 163.06497377 -50.26525933 158.94980323 C-50.27929529 149.23782811 -50.27775125 139.52594097 -50.26635742 129.81396484 C-50.25487963 119.80962399 -50.26894835 109.80555132 -50.2957539 99.80124581 C-50.31793854 91.19800786 -50.32454197 82.59485393 -50.31867748 73.99158943 C-50.31531303 68.85938015 -50.31768891 63.72734273 -50.33492851 58.59515762 C-50.3504394 53.76707986 -50.34639619 48.93939811 -50.32762337 44.11133575 C-50.32394881 42.34494221 -50.32701272 40.57851905 -50.33750916 38.81215286 C-50.40615102 26.30042792 -49.50066015 16.4391825 -40.53125 7.015625 C-29.87937975 -3.44169055 -13.75210418 -6.52877673 0 0 Z " fill="#020202" transform="translate(505.8203125,744.6640625)"/>
<path d="M0 0 C1.13898072 -0.00807831 1.13898072 -0.00807831 2.30097115 -0.01631981 C4.82338526 -0.03052849 7.34526929 -0.02351345 9.8677063 -0.01637268 C11.68515441 -0.02208 13.50259893 -0.02904567 15.32003784 -0.03717041 C20.2416181 -0.05507782 25.16301983 -0.05393786 30.08462286 -0.04822803 C34.19979826 -0.04513238 38.31493956 -0.05123288 42.4301101 -0.05726677 C52.14208522 -0.07130274 61.85397236 -0.0697587 71.56594849 -0.05836487 C81.57028934 -0.04688707 91.57436201 -0.0609558 101.57866752 -0.08776134 C110.18190547 -0.10994598 118.7850594 -0.11654941 127.3883239 -0.11068493 C132.52053318 -0.10732047 137.6525706 -0.10969636 142.78475571 -0.12693596 C147.61283347 -0.14244685 152.44051522 -0.13840363 157.26857758 -0.11963081 C159.03497112 -0.11595626 160.80139428 -0.11902017 162.56776047 -0.1295166 C175.07948541 -0.19815847 184.94073083 0.7073324 194.36428833 9.67674255 C201.45866069 16.90310323 204.43355238 24.21803622 204.54397583 34.38768005 C204.36394959 46.95878087 199.47708496 54.12843874 190.73147583 62.63768005 C180.94507695 69.01021886 171.27691683 68.96197768 159.99319458 68.90525818 C158.17545004 68.91068574 156.35770991 68.91781194 154.53997803 68.92649841 C149.62672158 68.94465932 144.71380291 68.93769421 139.80054092 68.92498207 C134.64559302 68.91481681 129.49067299 68.92425751 124.33572388 68.93052673 C115.68080482 68.93779289 107.02602253 68.92824253 98.37112427 68.90916443 C88.38150031 68.88739772 78.39220298 68.89444981 68.40258694 68.91647005 C59.80779199 68.93465347 51.21309506 68.937168 42.61828709 68.92671537 C37.49282545 68.92049661 32.36751707 68.91960019 27.24206543 68.93286133 C22.42215143 68.94446207 17.60265633 68.93631721 12.78278732 68.9132843 C11.0196235 68.90801971 9.2564241 68.9094722 7.49327469 68.91833496 C-4.66400827 68.97378622 -15.60840334 68.02506499 -24.95602417 59.38768005 C-32.18440665 51.46032663 -34.95602417 43.06772252 -34.95602417 32.38768005 C-34.14131539 23.76958871 -31.0542113 15.65068306 -24.95602417 9.38768005 C-17.28779221 3.4353099 -9.80330482 -0.08494658 0 0 Z " fill="#020202" transform="translate(775.9560241699219,455.61231994628906)"/>
<path d="M0 0 C9.01889914 5.52771237 15.44218153 13.0636985 18.1796875 23.3359375 C18.762933 29.35479472 18.72763802 35.34446459 18.69726562 41.38671875 C18.70269318 43.20446329 18.70981939 45.02220342 18.71850586 46.8399353 C18.73666676 51.75319175 18.72970166 56.66611042 18.71698952 61.57937241 C18.70682426 66.73432031 18.71626496 71.88924034 18.72253418 77.04418945 C18.72980034 85.69910851 18.72024998 94.3538908 18.70117188 103.00878906 C18.67940516 112.99841302 18.68645726 122.98771035 18.7084775 132.97732639 C18.72666091 141.57212134 18.72917544 150.16681827 18.71872282 158.76162624 C18.71250406 163.88708788 18.71160763 169.01239626 18.72486877 174.1378479 C18.73646952 178.9577619 18.72832466 183.777257 18.70529175 188.59712601 C18.70002716 190.36028983 18.70147964 192.12348923 18.71034241 193.88663864 C18.76735035 206.3852136 17.84966881 216.24358371 8.890625 225.65625 C1.66310321 232.75176226 -5.64990222 235.72311768 -15.8203125 235.8359375 C-22.49412591 235.75426496 -27.98943203 234.62459736 -33.8203125 231.3359375 C-34.46355469 230.9853125 -35.10679687 230.6346875 -35.76953125 230.2734375 C-43.24091072 225.60585119 -47.37495188 217.59191165 -49.8203125 209.3359375 C-50.08960736 206.60184015 -50.23159778 204.10408669 -50.20799255 201.37991333 C-50.21337809 200.62059285 -50.21876363 199.86127237 -50.22431237 199.07894218 C-50.23852105 196.55652807 -50.231506 194.03464404 -50.22436523 191.51220703 C-50.23007256 189.69475892 -50.23703822 187.8773144 -50.24516296 186.05987549 C-50.26307038 181.13829523 -50.26193041 176.2168935 -50.25622058 171.29529047 C-50.25312494 167.18011507 -50.25922543 163.06497377 -50.26525933 158.94980323 C-50.27929529 149.23782811 -50.27775125 139.52594097 -50.26635742 129.81396484 C-50.25487963 119.80962399 -50.26894835 109.80555132 -50.2957539 99.80124581 C-50.31793854 91.19800786 -50.32454197 82.59485393 -50.31867748 73.99158943 C-50.31531303 68.85938015 -50.31768891 63.72734273 -50.33492851 58.59515762 C-50.3504394 53.76707986 -50.34639619 48.93939811 -50.32762337 44.11133575 C-50.32394881 42.34494221 -50.32701272 40.57851905 -50.33750916 38.81215286 C-50.40615102 26.30042792 -49.50066015 16.4391825 -40.53125 7.015625 C-29.87937975 -3.44169055 -13.75210418 -6.52877673 0 0 Z " fill="#020202" transform="translate(505.8203125,2.6640625)"/>
<path d="M0 0 C1.81774454 -0.00542756 3.63548467 -0.01255376 5.45321655 -0.02124023 C10.366473 -0.03940114 15.27939167 -0.03243603 20.19265366 -0.01972389 C25.34760156 -0.00955864 30.50252159 -0.01899933 35.6574707 -0.02526855 C44.31238976 -0.03253471 52.96717205 -0.02298435 61.62207031 -0.00390625 C71.61169427 0.01786046 81.6009916 0.01080836 91.59060764 -0.01121187 C100.18540259 -0.02939529 108.78009952 -0.03190982 117.37490749 -0.0214572 C122.50036913 -0.01523843 127.62567751 -0.01434201 132.75112915 -0.02760315 C137.57104315 -0.03920389 142.39053825 -0.03105903 147.21040726 -0.00802612 C148.97357108 -0.00276154 150.73677048 -0.00421402 152.49991989 -0.01307678 C164.99849485 -0.07008473 174.85686496 0.84759681 184.26953125 9.80664062 C191.36390361 17.03300131 194.3387953 24.34793429 194.44921875 34.51757812 C194.26919251 47.08867894 189.38232788 54.25833681 180.63671875 62.76757812 C170.85031987 69.14011693 161.18215975 69.09187575 149.8984375 69.03515625 C148.08069296 69.04058381 146.26295283 69.04771001 144.44522095 69.05639648 C139.5319645 69.07455739 134.61904583 69.06759228 129.70578384 69.05488014 C124.55083594 69.04471489 119.39591591 69.05415558 114.2409668 69.0604248 C105.58604774 69.06769096 96.93126545 69.0581406 88.27636719 69.0390625 C78.28674323 69.01729579 68.2974459 69.02434789 58.30782986 69.04636812 C49.71303491 69.06455154 41.11833798 69.06706607 32.52353001 69.05661345 C27.39806837 69.05039468 22.27275999 69.04949826 17.14730835 69.0627594 C12.32739435 69.07436014 7.50789925 69.06621528 2.68803024 69.04318237 C0.92486642 69.03791779 -0.83833298 69.03937027 -2.60148239 69.04823303 C-15.10005735 69.10524098 -24.95842746 68.18755944 -34.37109375 59.22851562 C-41.46546611 52.00215494 -44.4403578 44.68722196 -44.55078125 34.51757812 C-44.37075501 21.94647731 -39.48389038 14.77681944 -30.73828125 6.26757812 C-20.95188237 -0.10496068 -11.28372225 -0.0567195 0 0 Z " fill="#020202" transform="translate(44.05078125,455.482421875)"/>
<path d="M0 0 C0.66 0.33 1.32 0.66 2 1 C-6.91 9.91 -15.82 18.82 -25 28 C-25.66 27.67 -26.32 27.34 -27 27 C-9.69230769 8.07692308 -9.69230769 8.07692308 0 0 Z " fill="#676767" transform="translate(360,331)"/>
<path d="M0 0 C0.66 0.33 1.32 0.66 2 1 C-2.29 5.29 -6.58 9.58 -11 14 C-11 10.30159372 -10.17133056 9.68584567 -7.75 7 C-7.14671875 6.319375 -6.5434375 5.63875 -5.921875 4.9375 C-4.06233388 3.06284066 -2.15205789 1.52358081 0 0 Z " fill="#686868" transform="translate(674,662)"/>
</svg>
