<?xml version="1.0" encoding="UTF-8"?>
<svg version="1.1" xmlns="http://www.w3.org/2000/svg" width="840" height="859">
<path d="M0 0 C5.28044615 2.50126396 8.49000597 6.20651104 11.25 11.3125 C13.73136579 20.20406074 10.42291453 26.39547949 6.625 34.375 C5.5110225 36.80925323 4.40093514 39.24486798 3.296875 41.68359375 C2.87660538 42.6080706 2.87660538 42.6080706 2.44784546 43.55122375 C-14.82686156 81.67081082 -24.85281033 123.27029369 -28.70629883 164.86230469 C-28.87353259 166.64891176 -29.04883259 168.43491285 -29.24905396 170.21812439 C-29.91869384 176.33839566 -30.17350218 182.38051599 -30.203125 188.53515625 C-30.21022995 189.51897278 -30.2173349 190.50278931 -30.22465515 191.51641846 C-30.48114436 237.6247109 -25.39612354 280.80929679 -12 325 C-11.72220703 325.93231445 -11.44441406 326.86462891 -11.15820312 327.82519531 C2.17469759 372.07803815 25.46904691 413.69314893 53.59619141 450.17431641 C55.00606798 452.00789154 56.40104545 453.85198885 57.79296875 455.69921875 C61.63108582 460.76497904 65.45442111 465.53978409 70 470 C72.26297358 472.47997105 74.49027492 474.98904217 76.71875 477.5 C79.07489961 480.08208176 81.51759906 482.53893775 84 485 C85.27451596 486.29581515 86.54784674 487.59279653 87.8203125 488.890625 C94.83880623 496.01409099 101.77959169 502.9860598 109.66015625 509.16015625 C111.85568618 510.88652452 113.92823403 512.6908241 116 514.5625 C121.15162254 519.1262818 126.82443414 523.91221707 133 527 C133 527.66 133 528.32 133 529 C133.56074219 529.268125 134.12148438 529.53625 134.69921875 529.8125 C137.16731663 531.08635697 139.4719216 532.50433086 141.8125 534 C142.78703125 534.62261719 143.7615625 535.24523437 144.765625 535.88671875 C147.00233799 537.34814596 149.2181173 538.82299019 151.421875 540.33203125 C160.23163966 546.34997753 169.26800467 551.69982016 178.66748047 556.74560547 C180.99453206 557.99705942 183.31177489 559.26544839 185.62890625 560.53515625 C266.16646995 604.26157173 363.62547153 616.58042321 453 598 C454.55412598 597.69352539 454.55412598 597.69352539 456.13964844 597.38085938 C488.5098539 590.96183846 519.96984351 579.22489236 549.70703125 565.05859375 C555.486584 562.39035049 561.05923755 562.05895602 567.125 564 C572.24525708 567.56191797 576.11037352 570.70882027 577.79296875 576.93359375 C578.74908523 588.69798348 572.61996871 598.10956847 567 608 C566.22394395 609.40493997 565.44790144 610.80988742 564.671875 612.21484375 C552.16216671 634.43405976 537.09106646 655.25636017 521 675 C519.97712891 676.28390625 519.97712891 676.28390625 518.93359375 677.59375 C509.44401925 689.40903417 498.93709432 700.15529338 488.25 710.875 C487.75449646 711.37318237 487.25899292 711.87136475 486.74847412 712.38464355 C481.01233458 718.14427338 475.19002427 723.72783627 469 729 C467.93967111 729.93684189 466.88100212 730.87556673 465.82421875 731.81640625 C415.85454813 775.79987864 353.11664351 807.39991218 288.5 823.0625 C287.62269226 823.27688721 286.74538452 823.49127441 285.8414917 823.7121582 C268.35259468 827.95633558 250.86867621 830.87738057 233 833 C231.63986227 833.18505331 230.27983875 833.37094776 228.91992188 833.55761719 C214.81894485 835.38436593 200.67839618 835.30690713 186.48632812 835.26074219 C182.969348 835.24939251 179.45267192 835.25610865 175.93570232 835.26760483 C153.59178163 835.32990298 131.70314808 834.21223636 109.6875 830.25 C108.94885712 830.11961334 108.21021423 829.98922668 107.44918823 829.85488892 C33.5002448 816.77907475 -38.46851738 785.87630382 -96 737 C-97.09076118 736.08287566 -98.1819288 735.16623455 -99.2734375 734.25 C-102.52740248 731.51366891 -105.76575254 728.75961115 -109 726 C-110.14855469 725.02353516 -110.14855469 725.02353516 -111.3203125 724.02734375 C-115.42096658 720.49756504 -119.25164115 716.77687631 -123.046875 712.921875 C-125.41513681 710.59150538 -127.90020015 708.44377707 -130.45703125 706.32421875 C-132.06605334 704.94331118 -133.58693038 703.58280772 -135 702 C-135 701.34 -135 700.68 -135 700 C-135.66 700 -136.32 700 -137 700 C-138.375 698.63671875 -138.375 698.63671875 -140 696.6875 C-142.84002365 693.33697623 -145.75815152 690.09076071 -148.75 686.875 C-153.97287703 681.14084736 -158.73703688 675.11756819 -163.46679688 668.97460938 C-165.10107147 666.86983025 -166.75925772 664.78557637 -168.421875 662.703125 C-175.7958936 653.42541601 -182.57387318 643.96279885 -188.82421875 633.89306641 C-189.87154606 632.20681724 -190.93469178 630.53041625 -192 628.85546875 C-234.71410265 560.95784309 -257.38738633 483.93900131 -258.8125 403.875 C-258.83468597 402.69634369 -258.85687195 401.51768738 -258.87973022 400.30331421 C-259.22470213 380.33121217 -258.53019023 360.80991633 -256 341 C-255.84869629 339.77909668 -255.69739258 338.55819336 -255.54150391 337.30029297 C-250.1927643 295.19815242 -238.70158772 253.59470001 -221 215 C-220.32130859 213.51717529 -220.32130859 213.51717529 -219.62890625 212.00439453 C-213.11138993 197.87207002 -206.00623699 184.23274797 -198.0246582 170.87158203 C-196.85935727 168.87507318 -196.85935727 168.87507318 -196 166 C-195.34 166 -194.68 166 -194 166 C-193.62875 164.96166016 -193.62875 164.96166016 -193.25 163.90234375 C-191.8114659 160.56224738 -189.98380557 157.59504725 -188 154.5625 C-187.60409668 153.95341797 -187.20819336 153.34433594 -186.80029297 152.71679688 C-179.5119722 141.5971793 -171.60467405 130.9837069 -163.29199219 120.61230469 C-162.09861044 119.12305808 -160.91226371 117.62818138 -159.7265625 116.1328125 C-148.77584753 102.49383537 -136.39161384 90.26336775 -123.98242188 77.96777344 C-122.38914374 76.3862683 -120.80448707 74.7960798 -119.22265625 73.203125 C-93.68251372 47.88741255 -37.55970598 -3.29390844 0 0 Z " fill="#020202" transform="translate(261,12)"/>
<path d="M0 0 C1 2 1 2 1 6 C-0.875 8.25 -0.875 8.25 -3 10 C-3.66 10 -4.32 10 -5 10 C-5.33 11.65 -5.66 13.3 -6 15 C-6.66 15 -7.32 15 -8 15 C-6.8905928 11.51329166 -5.73662334 8.22515763 -4 5 C-3.34 5 -2.68 5 -2 5 C-1.34 3.35 -0.68 1.7 0 0 Z " fill="#757575" transform="translate(69,173)"/>
<path d="M0 0 C0.33 0.99 0.66 1.98 1 3 C-2.63 6.3 -6.26 9.6 -10 13 C-10 10 -10 10 -7.8125 7.51953125 C-6.884375 6.62621094 -5.95625 5.73289062 -5 4.8125 C-4.071875 3.91144531 -3.14375 3.01039062 -2.1875 2.08203125 C-1.1046875 1.05142578 -1.1046875 1.05142578 0 0 Z " fill="#808080" transform="translate(123,104)"/>
<path d="M0 0 C0.66 0.33 1.32 0.66 2 1 C1.26418258 2.1549921 0.51069961 3.29874185 -0.25 4.4375 C-0.66765625 5.07558594 -1.0853125 5.71367188 -1.515625 6.37109375 C-3.29892663 8.32803265 -4.43550101 8.55223033 -7 9 C-8.3479743 9.63654342 -9.68596724 10.29605388 -11 11 C-7.81316569 6.66590534 -4.13621084 3.3810038 0 0 Z " fill="#757575" transform="translate(161,68)"/>
<path d="M0 0 C0.66 1.32 1.32 2.64 2 4 C0.71034824 5.37562854 -0.62689293 6.70766393 -2 8 C-2.66 8 -3.32 8 -4 8 C-4 8.99 -4 9.98 -4 11 C-4.66 11 -5.32 11 -6 11 C-4.54955729 6.89041233 -2.48889248 3.56741255 0 0 Z " fill="#6F6F6F" transform="translate(76,162)"/>
<path d="M0 0 C0.33 1.32 0.66 2.64 1 4 C-1.61514317 6.12038635 -4.19637616 8.13091744 -7 10 C-5.33248852 6.05860922 -2.77289351 3.2107188 0 0 Z " fill="#757575" transform="translate(100,130)"/>
<path d="M0 0 C0.66 0.33 1.32 0.66 2 1 C1.01 2.485 1.01 2.485 0 4 C-0.99 4 -1.98 4 -3 4 C-3.66 5.32 -4.32 6.64 -5 8 C-5.99 7.34 -6.98 6.68 -8 6 C-5.36 4.02 -2.72 2.04 0 0 Z " fill="#6A6A6A" transform="translate(196,42)"/>
<path d="M0 0 C1.98 0 3.96 0 6 0 C2.87218586 2.52631142 -0.29577411 4.42373366 -4 6 C-4.99 5.67 -5.98 5.34 -7 5 C-6.030625 4.54625 -5.06125 4.0925 -4.0625 3.625 C-0.92920418 2.34213779 -0.92920418 2.34213779 0 0 Z " fill="#979797" transform="translate(633,801)"/>
<path d="M0 0 C0.66 0.33 1.32 0.66 2 1 C1.01 2.485 1.01 2.485 0 4 C-0.66 4 -1.32 4 -2 4 C-2.33 4.66 -2.66 5.32 -3 6 C-6.0625 6.625 -6.0625 6.625 -9 7 C-6.3765992 4.08511023 -3.28183606 2.11496102 0 0 Z " fill="#777777" transform="translate(210,33)"/>
<path d="M0 0 C8.57142857 -0.28571429 8.57142857 -0.28571429 12 2 C12 2.33 12 2.66 12 3 C3.42857143 2.14285714 3.42857143 2.14285714 0 0 Z " fill="#9A9A9A" transform="translate(320,830)"/>
<path d="M0 0 C1.46534385 3.80989402 0.55203911 6.3241179 -1 10 C-1.99 10.495 -1.99 10.495 -3 11 C-2.69078116 9.54096742 -2.37751201 8.08279278 -2.0625 6.625 C-1.88847656 5.81289063 -1.71445312 5.00078125 -1.53515625 4.1640625 C-1 2 -1 2 0 0 Z " fill="#919191" transform="translate(30,251)"/>
<path d="M0 0 C0.66 1.32 1.32 2.64 2 4 C-0.31 5.32 -2.62 6.64 -5 8 C-3.62845496 5.04590299 -2.01136276 2.55991624 0 0 Z " fill="#707070" transform="translate(89,144)"/>
<path d="M0 0 C-0.6875 1.9375 -0.6875 1.9375 -2 4 C-4.625 4.75 -4.625 4.75 -7 5 C-2.25 0 -2.25 0 0 0 Z " fill="#5F5F5F" transform="translate(184,52)"/>
</svg>
